<svg width="42" height="42" viewBox="0 0 42 42" fill="none" xmlns="http://www.w3.org/2000/svg">
<g clip-path="url(#clip0_13_98)">
<path d="M13.986 7H14.7612C18.844 7.60375 19.9509 9.92075 23.5086 9.92075C27.0664 9.92075 28.1732 7.60375 32.2569 7H32.6961C33.7877 7 34.8687 7.21501 35.8772 7.63275C36.8857 8.05049 37.8021 8.66279 38.5739 9.43467C39.3458 10.2066 39.9581 11.1229 40.3759 12.1314C40.7936 13.14 41.0086 14.2209 41.0086 15.3125V15.8603C41.0086 18.4004 38.3049 21.3001 37.5086 24.0476C36.6642 26.9649 36.0859 29.3501 35.9161 31.8448C35.518 37.6906 33.5247 40.25 31.3836 40.25C28.1864 40.25 25.3479 27.1469 23.5637 27.1469C21.7787 27.1469 18.2394 40.25 15.6336 40.25C14.0437 40.25 11.9849 39.3094 11.2114 31.8448C10.9034 28.875 10.3836 27.0734 9.50862 24.0476C8.73862 21.3876 6.14162 18.2096 6.00862 15.3571C5.95845 14.2783 6.12761 13.2005 6.50588 12.189C6.88414 11.1774 7.46365 10.2531 8.20936 9.47186C8.95506 8.69065 9.85147 8.06882 10.8444 7.64395C11.8373 7.21908 12.906 7.00002 13.986 7Z" stroke="white" stroke-width="3"/>
<path d="M16.0554 13.53L30.5095 18.1903" stroke="white" stroke-width="3" stroke-linecap="round"/>
<path d="M16.0554 18.1903L30.5095 13.53" stroke="white" stroke-width="3" stroke-linecap="round"/>
</g>
<defs>
<clipPath id="clip0_13_98">
<rect width="42" height="42" fill="white"/>
</clipPath>
</defs>
</svg>
