<svg width="42" height="42" viewBox="0 0 42 42" fill="none" xmlns="http://www.w3.org/2000/svg">
<path fill-rule="evenodd" clip-rule="evenodd" d="M34.5072 31.5001C30.2127 20.7754 25.2 17.9488 25.2 12.6001V6.3001H26.25C26.5285 6.3001 26.7956 6.18947 26.9925 5.99256C27.1894 5.79565 27.3 5.52857 27.3 5.2501V3.1501C27.3 2.87162 27.1894 2.60455 26.9925 2.40764C26.7956 2.21072 26.5285 2.1001 26.25 2.1001H15.75C15.4715 2.1001 15.2045 2.21072 15.0075 2.40764C14.8106 2.60455 14.7 2.87162 14.7 3.1501V5.2501C14.7 5.52857 14.8106 5.79565 15.0075 5.99256C15.2045 6.18947 15.4715 6.3001 15.75 6.3001H16.8V12.6001C16.8 17.9488 11.7873 20.7754 7.4928 31.5001C6.1257 34.9126 2.6145 39.9001 21 39.9001C39.3855 39.9001 35.8743 34.9126 34.5072 31.5001ZM31.1115 35.1772C29.6373 35.6182 26.7036 36.1201 21 36.1201C15.2964 36.1201 12.3627 35.6182 10.8885 35.1772C10.3656 35.0218 10.1619 34.4149 10.3467 33.8584C10.8087 32.4514 11.6802 30.0196 13.3098 27.3043C17.2914 20.6704 21.4221 28.348 24.8598 28.348C28.2975 28.348 27.3546 25.0699 28.6902 27.3043C29.9193 29.3716 30.9132 31.57 31.6533 33.8584C31.8381 34.4149 31.6344 35.0197 31.1115 35.1772Z" fill="white"/>
</svg>
