<svg width="19" height="19" viewBox="0 0 19 19" fill="none" xmlns="http://www.w3.org/2000/svg">
<path fill-rule="evenodd" clip-rule="evenodd" d="M4.48279 18.1642H0.771667V7.03027H4.48279V18.1642Z" fill="#032530"/>
<path fill-rule="evenodd" clip-rule="evenodd" d="M2.61619 4.55593H2.59511C1.48763 4.55593 0.771667 3.73084 0.771667 2.69969C0.771667 1.64673 1.50944 0.844727 2.63793 0.844727C3.76643 0.844727 4.46138 1.64673 4.48279 2.69969C4.48279 3.73084 3.76643 4.55593 2.61619 4.55593Z" fill="#032530"/>
<path fill-rule="evenodd" clip-rule="evenodd" d="M18.0907 18.1639H14.4439V12.3441C14.4439 10.8822 13.9162 9.88474 12.596 9.88474C11.5884 9.88474 10.9883 10.5572 10.7247 11.2067C10.6283 11.4395 10.6046 11.7638 10.6046 12.0889V18.1642H6.95721C6.95721 18.1642 7.00528 8.30676 6.95721 7.286H10.6046V8.82681C11.0887 8.08612 11.9556 7.03027 13.8919 7.03027C16.2917 7.03027 18.0909 8.58537 18.0909 11.9267L18.0907 18.1639Z" fill="#032530"/>
</svg>
