<svg width="42" height="42" viewBox="0 0 42 42" fill="none" xmlns="http://www.w3.org/2000/svg">
<path d="M35.4375 15.75V18.375H36.75V23.625C36.75 24.6693 36.3352 25.6708 35.5967 26.4092C34.8583 27.1477 33.8568 27.5625 32.8125 27.5625C31.7682 27.5625 30.7667 27.1477 30.0283 26.4092C29.2898 25.6708 28.875 24.6693 28.875 23.625V18.375H30.1875V15.75H26.25V23.625C26.252 25.1371 26.7752 26.6023 27.7316 27.7736C28.6879 28.9449 30.0188 29.7506 31.5 30.0549V31.5C31.5 32.8924 30.9469 34.2277 29.9623 35.2123C28.9777 36.1969 27.6424 36.75 26.25 36.75C24.8576 36.75 23.5223 36.1969 22.5377 35.2123C21.5531 34.2277 21 32.8924 21 31.5V28.6335C21.8757 28.3239 22.6138 27.7147 23.0838 26.9135C23.5537 26.1123 23.7254 25.1708 23.5683 24.2554C23.4112 23.3399 22.9356 22.5094 22.2254 21.9107C21.5153 21.3121 20.6163 20.9837 19.6875 20.9837C18.7587 20.9837 17.8597 21.3121 17.1496 21.9107C16.4394 22.5094 15.9638 23.3399 15.8067 24.2554C15.6496 25.1708 15.8213 26.1123 16.2912 26.9135C16.7612 27.7147 17.4993 28.3239 18.375 28.6335V31.5C18.375 33.5886 19.2047 35.5916 20.6815 37.0685C22.1584 38.5453 24.1614 39.375 26.25 39.375C28.3386 39.375 30.3416 38.5453 31.8185 37.0685C33.2953 35.5916 34.125 33.5886 34.125 31.5V30.0549C35.6062 29.7506 36.9371 28.9449 37.8934 27.7736C38.8498 26.6023 39.373 25.1371 39.375 23.625V15.75H35.4375ZM19.6875 23.625C19.9471 23.625 20.2009 23.702 20.4167 23.8462C20.6325 23.9904 20.8008 24.1954 20.9001 24.4352C20.9994 24.6751 21.0254 24.939 20.9748 25.1936C20.9241 25.4482 20.7991 25.682 20.6156 25.8656C20.432 26.0491 20.1982 26.1741 19.9436 26.2248C19.689 26.2754 19.4251 26.2494 19.1852 26.1501C18.9454 26.0508 18.7404 25.8825 18.5962 25.6667C18.452 25.4508 18.375 25.1971 18.375 24.9375C18.375 24.5894 18.5133 24.2556 18.7594 24.0094C19.0056 23.7633 19.3394 23.625 19.6875 23.625Z" fill="white"/>
<path d="M34.125 5.25H28.875V2.625H26.25V5.25H15.75V2.625H13.125V5.25H7.875C7.17881 5.25 6.51113 5.52656 6.01884 6.01884C5.52656 6.51113 5.25 7.17881 5.25 7.875V34.125C5.25 34.8212 5.52656 35.4889 6.01884 35.9812C6.51113 36.4734 7.17881 36.75 7.875 36.75H13.125V34.125H7.875V7.875H13.125V10.5H15.75V7.875H26.25V10.5H28.875V7.875H34.125V13.125H36.75V7.875C36.75 7.17881 36.4734 6.51113 35.9812 6.01884C35.4889 5.52656 34.8212 5.25 34.125 5.25Z" fill="white"/>
</svg>
