<svg width="48" height="48" viewBox="0 0 48 48" fill="none" xmlns="http://www.w3.org/2000/svg">
<path fill-rule="evenodd" clip-rule="evenodd" d="M42 14C42 16.1217 41.1571 18.1566 39.6569 19.6569C38.1566 21.1571 36.1217 22 34 22C31.8783 22 29.8434 21.1571 28.3431 19.6569C26.8429 18.1566 26 16.1217 26 14C26 11.8783 26.8429 9.84344 28.3431 8.34315C29.8434 6.84285 31.8783 6 34 6C36.1217 6 38.1566 6.84285 39.6569 8.34315C41.1571 9.84344 42 11.8783 42 14ZM38.282 14.985C38.2225 15.2432 38.0628 15.4673 37.8382 15.6079C37.6136 15.7485 37.3423 15.7942 37.084 15.735L30.468 14.215C30.2094 14.1556 29.985 13.9959 29.8442 13.771C29.7033 13.5462 29.6576 13.2746 29.717 13.016C29.7764 12.7574 29.9361 12.533 30.161 12.3922C30.3858 12.2513 30.6574 12.2056 30.916 12.265L37.532 13.786C37.66 13.8155 37.7809 13.8699 37.8878 13.9461C37.9948 14.0223 38.0857 14.1188 38.1553 14.2302C38.225 14.3415 38.272 14.4655 38.2937 14.595C38.3155 14.7245 38.3115 14.857 38.282 14.985Z" fill="white"/>
<path d="M16.778 9.24489C16.131 7.71289 13.965 7.55889 13.096 8.98189L6.29199 20.1149C5.50699 21.3989 6.38399 23.0389 7.91499 23.1479L19.781 23.9939C21.311 24.1039 22.425 22.6059 21.841 21.2239L16.778 9.24489Z" fill="white"/>
<path fill-rule="evenodd" clip-rule="evenodd" d="M35.385 36.3599C36.8274 35.6874 37.9436 34.4696 38.488 32.9741C39.0324 31.4787 38.9605 29.8283 38.288 28.3859C37.955 27.6717 37.4847 27.0301 36.9037 26.4977C36.3228 25.9653 35.6427 25.5525 34.9022 25.2829C33.4068 24.7385 31.7564 24.8104 30.314 25.4829L19.438 30.5549C18.7239 30.8879 18.0823 31.3582 17.55 31.9391C17.0176 32.52 16.6049 33.2001 16.3354 33.9405C16.0659 34.6809 15.9448 35.4672 15.9791 36.2544C16.0135 37.0416 16.2025 37.8143 16.5355 38.5284C16.8685 39.2425 17.3388 39.8841 17.9197 40.4164C18.5006 40.9488 19.1807 41.3615 19.9211 41.631C20.6615 41.9005 21.4478 42.0216 22.235 41.9873C23.0222 41.9529 23.7949 41.7639 24.509 41.4309L35.385 36.3589V36.3599ZM29.943 36.6899L34.54 34.5469C35.4907 34.092 36.2235 33.2802 36.579 32.288C36.9345 31.2958 36.8841 30.2034 36.4386 29.2481C35.9931 28.2929 35.1887 27.5521 34.2001 27.1868C33.2115 26.8214 32.1186 26.861 31.159 27.2969L26.562 29.4399L29.942 36.6899H29.943Z" fill="white"/>
</svg>
