<svg width="21" height="19" viewBox="0 0 21 19" fill="none" xmlns="http://www.w3.org/2000/svg">
<path fill-rule="evenodd" clip-rule="evenodd" d="M0 9.50011C0 9.16859 0.131696 8.85065 0.366117 8.61623C0.600537 8.38181 0.918479 8.25011 1.25 8.25011H15.7325L10.365 2.88511C10.1303 2.6504 9.99842 2.33205 9.99842 2.00011C9.99842 1.66818 10.1303 1.34983 10.365 1.11511C10.5997 0.880398 10.9181 0.748535 11.25 0.748535C11.5819 0.748535 11.9003 0.880398 12.135 1.11511L19.635 8.61511C19.7514 8.73123 19.8438 8.86917 19.9068 9.02103C19.9698 9.17289 20.0022 9.3357 20.0022 9.50011C20.0022 9.66453 19.9698 9.82734 19.9068 9.9792C19.8438 10.1311 19.7514 10.269 19.635 10.3851L12.135 17.8851C11.9003 18.1198 11.5819 18.2517 11.25 18.2517C10.9181 18.2517 10.5997 18.1198 10.365 17.8851C10.1303 17.6504 9.99842 17.3321 9.99842 17.0001C9.99842 16.6682 10.1303 16.3498 10.365 16.1151L15.7325 10.7501H1.25C0.918479 10.7501 0.600537 10.6184 0.366117 10.384C0.131696 10.1496 0 9.83164 0 9.50011Z" fill="#FF5B2E"/>
</svg>
