<svg width="42" height="42" viewBox="0 0 42 42" fill="none" xmlns="http://www.w3.org/2000/svg">
<path d="M21 18.0373C23.3554 18.0373 25.3327 19.6333 25.8913 21.7913C26.5936 24.4969 26.4986 27.4621 29.5856 29.0018C32.3257 29.9342 33.3623 31.106 33.3623 34.2476C33.3623 36.755 31.2169 39.4204 28.4508 39.753C25.3579 40.2175 22.9505 39.6102 20.9992 38.498C19.0478 39.6102 16.6396 40.2184 13.5509 39.753C10.7831 39.4204 8.63856 36.7458 8.63856 34.2476C8.63856 31.1732 9.74484 29.8721 12.4799 28.9808C15.8458 27.2614 15.3938 24.2474 16.1448 21.6586C16.4535 20.611 17.0936 19.6919 17.969 19.0389C18.8444 18.386 19.9079 18.0346 21 18.0373ZM36.4199 16.1692C35.5858 15.4442 32.1812 18.2742 31.1102 19.6736C30.4592 20.4204 30.0544 21.4469 30.0544 22.5792C30.0544 24.8564 31.684 26.7028 33.689 26.7028C35.2145 26.7028 36.5198 25.6418 37.06 24.1332C38.1091 21.42 38.1671 17.6862 36.4199 16.1692ZM5.57844 16.1692C3.83376 17.6862 3.89004 21.42 4.94088 24.1332C5.481 25.6418 6.78552 26.7028 8.31012 26.7028C10.3169 26.7028 11.9448 24.8564 11.9448 22.5792C11.9448 21.4469 11.5408 20.4204 10.8898 19.6736C9.81792 18.2742 6.41424 15.4442 5.57844 16.1692ZM25.4814 1.29529C33.9553 2.73337 33.3606 17.005 26.5759 15.855C24.6187 15.5224 23.1655 13.7399 22.9446 11.6105C22.7203 9.44497 22.2155 0.742568 25.4814 1.29529ZM16.5186 1.29529C19.7854 0.741728 19.2797 9.44413 19.0554 11.6096C18.8345 13.7399 17.383 15.5215 15.4258 15.8542C8.6394 17.0058 8.04552 2.73337 16.5186 1.29529Z" fill="white"/>
</svg>
