<svg width="30" height="30" viewBox="0 0 30 30" fill="none" xmlns="http://www.w3.org/2000/svg">
<path d="M14.5312 1.875C13.5544 1.875 12.735 2.2275 12.1219 2.89406L2.71406 12.3159C2.15812 12.9234 1.875 13.6687 1.875 14.5312C1.875 21.5091 7.5525 27.1875 14.5312 27.1875C21.51 27.1875 27.1875 21.5091 27.1875 14.5312C27.1875 7.55344 21.5091 1.875 14.5312 1.875ZM14.5312 26.25C8.05875 26.25 2.8125 21.0037 2.8125 14.5312C2.8125 11.295 7.725 11.9653 9.84375 9.84375C11.9644 7.725 11.295 2.8125 14.5312 2.8125C21.0037 2.8125 26.25 8.05969 26.25 14.5312C26.25 21.0028 21.0037 26.25 14.5312 26.25Z" fill="#FF5B2E"/>
<circle cx="15" cy="15" r="2.8125" fill="#FF5B2E"/>
</svg>
