<svg width="17" height="14" viewBox="0 0 17 14" fill="none" xmlns="http://www.w3.org/2000/svg">
<path fill-rule="evenodd" clip-rule="evenodd" d="M8.26989 3.93875L8.30475 4.52733L7.72374 4.45526C5.60887 4.17898 3.76126 3.24206 2.19253 1.6685L1.4256 0.887733L1.22805 1.4643C0.809727 2.74957 1.07699 4.10691 1.94851 5.01981C2.41331 5.52431 2.30873 5.59639 1.50694 5.29609C1.22805 5.19999 0.98403 5.12792 0.960789 5.16396C0.879448 5.24804 1.15833 6.34112 1.37912 6.77355C1.68124 7.37414 2.29711 7.96272 2.97108 8.31107L3.54047 8.58734L2.8665 8.59935C2.21577 8.59935 2.19253 8.61136 2.26225 8.86361C2.49466 9.64438 3.41265 10.4732 4.43523 10.8336L5.15568 11.0858L4.52819 11.4702C3.59857 12.0227 2.50628 12.335 1.41398 12.3591C0.891068 12.3711 0.461121 12.4191 0.461121 12.4552C0.461121 12.5753 1.87878 13.2479 2.70382 13.5122C5.17892 14.293 8.11883 13.9566 10.3267 12.6233C11.8954 11.6744 13.4641 9.78853 14.1962 7.96272C14.5913 6.98976 14.9864 5.212 14.9864 4.35916C14.9864 3.80662 15.0212 3.73454 15.672 3.07389C16.0554 2.68951 16.4157 2.2691 16.4854 2.14898C16.6016 1.92075 16.59 1.92075 15.9973 2.12495C15.0096 2.48531 14.8702 2.43726 15.3582 1.89673C15.7184 1.51235 16.1484 0.815661 16.1484 0.61146C16.1484 0.575424 15.9741 0.635483 15.7765 0.743589C15.5674 0.863708 15.1026 1.04389 14.754 1.15199L14.1265 1.3562L13.5571 0.959804C13.2433 0.74359 12.8018 0.503353 12.5694 0.431282C11.9767 0.263116 11.0704 0.287139 10.5358 0.479329C9.08331 1.01986 8.16531 2.41324 8.26989 3.93875Z" fill="#032530"/>
</svg>
