<svg width="48" height="48" viewBox="0 0 48 48" fill="none" xmlns="http://www.w3.org/2000/svg">
<path fill-rule="evenodd" clip-rule="evenodd" d="M3.81804 16.8847C3.6011 17.1018 3.47927 17.3961 3.47936 17.703C3.47946 18.0099 3.60146 18.3042 3.81854 18.5212C4.03562 18.7381 4.33 18.86 4.6369 18.8599C4.9438 18.8598 5.2381 18.7378 5.45504 18.5207L6.27304 17.7017L10.363 21.7917L7.09104 25.0657C6.88026 25.2839 6.76362 25.5762 6.76625 25.8795C6.76887 26.1829 6.89055 26.4731 7.10508 26.6876C7.31961 26.9022 7.60982 27.0239 7.91319 27.0265C8.21657 27.0291 8.50884 26.9125 8.72704 26.7017L10.363 25.0657L13.318 28.0207H5.37404C4.74404 28.0207 4.14104 28.2737 3.69504 28.7237C3.24909 29.1758 2.99936 29.7856 3.00004 30.4207V34.0187C2.99255 36.8089 3.93014 39.5194 5.66004 41.7087C7.37941 43.8864 9.79377 45.4085 12.5 46.0207C15.2061 45.4091 17.6204 43.8877 19.34 41.7107C20.5517 40.1786 21.3818 38.3806 21.762 36.4647L24.272 38.9757C25.0682 39.7721 26.0794 40.3189 27.1818 40.5491C28.2841 40.7793 29.4297 40.6829 30.478 40.2717L31.636 41.4307C31.9233 41.7181 32.2812 41.9249 32.6737 42.03C33.0663 42.1352 33.4796 42.1351 33.872 42.0297L36.545 44.7027C36.7621 44.9198 37.0565 45.0417 37.3635 45.0417C37.6705 45.0417 37.965 44.9198 38.182 44.7027C38.3991 44.4856 38.5211 44.1912 38.5211 43.8842C38.5211 43.5772 38.3991 43.2828 38.182 43.0657L35.508 40.3927C35.6131 40.0003 35.613 39.5871 35.5076 39.1947C35.4023 38.8024 35.1955 38.4447 34.908 38.1577L33.75 36.9987C34.105 36.0934 34.2261 35.1132 34.102 34.1487C33.9412 32.8784 33.3617 31.6979 32.455 30.7937L18.545 16.8837L20.182 15.2467C20.399 15.0296 20.5208 14.7352 20.5207 14.4283C20.5206 14.1214 20.3986 13.8271 20.1815 13.6102C19.9645 13.3932 19.6701 13.2714 19.3632 13.2715C19.0563 13.2716 18.762 13.3936 18.545 13.6107L15.273 16.8837L11.183 12.7937L12 11.9757C12.2171 11.7587 12.3391 11.4644 12.3392 11.1575C12.3393 10.8506 12.2175 10.5563 12.0005 10.3392C11.7836 10.1221 11.4893 10.0001 11.1824 10C10.8755 9.99991 10.5811 10.1217 10.364 10.3387L3.81804 16.8847ZM23.547 35.4207L28.9 30.0677L17.13 18.2977L11.777 23.6517L16.147 28.0207H19.626C20.256 28.0207 20.859 28.2737 21.304 28.7237C21.75 29.1737 22 29.7837 22 30.4207V33.8747L23.547 35.4207ZM13.858 18.2977L9.76804 14.2077L7.68804 16.2877L11.778 20.3777L13.858 18.2977ZM32.671 38.7477C32.5308 38.9035 32.3822 39.0518 32.226 39.1917L33.05 40.0157C33.0792 40.0449 33.1138 40.0681 33.1519 40.0839C33.1901 40.0998 33.2309 40.1079 33.2722 40.108C33.3135 40.108 33.3543 40.1 33.3925 40.0842C33.4307 40.0684 33.4653 40.0453 33.4945 40.0162C33.5238 39.987 33.547 39.9524 33.5628 39.9143C33.5786 39.8762 33.5868 39.8353 33.5869 39.794C33.5869 39.7528 33.5788 39.7119 33.5631 39.6737C33.5473 39.6356 33.5242 39.6009 33.495 39.5717L32.671 38.7477ZM30.536 31.7037L31.04 32.2077C31.4321 32.598 31.7334 33.0698 31.9227 33.5897C32.1119 34.1095 32.1844 34.6647 32.135 35.2157C32.1036 35.577 32.0204 35.932 31.888 36.2697L29.748 38.4087C29.0622 38.678 28.3126 38.7413 27.5912 38.5909C26.8699 38.4404 26.2081 38.0827 25.687 37.5617L25.183 37.0577L30.536 31.7037ZM14 33.0207C14 32.7555 13.8947 32.5011 13.7072 32.3136C13.5196 32.126 13.2653 32.0207 13 32.0207C12.7348 32.0207 12.4805 32.126 12.2929 32.3136C12.1054 32.5011 12 32.7555 12 33.0207V35.0207H10C9.73483 35.0207 9.48047 35.126 9.29294 35.3136C9.1054 35.5011 9.00004 35.7555 9.00004 36.0207C9.00004 36.2859 9.1054 36.5403 9.29294 36.7278C9.48047 36.9153 9.73483 37.0207 10 37.0207H12V39.0207C12 39.2859 12.1054 39.5403 12.2929 39.7278C12.4805 39.9153 12.7348 40.0207 13 40.0207C13.2653 40.0207 13.5196 39.9153 13.7072 39.7278C13.8947 39.5403 14 39.2859 14 39.0207V37.0207H16C16.2653 37.0207 16.5196 36.9153 16.7072 36.7278C16.8947 36.5403 17 36.2859 17 36.0207C17 35.7555 16.8947 35.5011 16.7072 35.3136C16.5196 35.126 16.2653 35.0207 16 35.0207H14V33.0207Z" fill="white"/>
</svg>
