<svg width="25" height="25" viewBox="0 0 25 25" fill="none" xmlns="http://www.w3.org/2000/svg">
<path d="M10.6082 6.62119L7.20784 2.69613C6.81583 2.24382 6.09716 2.24583 5.64183 2.70216L2.84554 5.50348C2.01329 6.33674 1.77507 7.57406 2.25653 8.56613C5.13285 14.5215 9.93582 19.3312 15.8872 22.2159C16.8783 22.6974 18.1146 22.4591 18.9468 21.6259L21.7693 18.7984C22.2266 18.3411 22.2276 17.6184 21.7713 17.2264L17.8311 13.8441C17.419 13.4903 16.7788 13.5365 16.3656 13.9506L14.9946 15.3237C14.9244 15.3972 14.8321 15.4457 14.7316 15.4617C14.6312 15.4777 14.5283 15.4603 14.4388 15.4121C12.1978 14.1216 10.3388 12.2602 9.05126 10.0175C9.00304 9.92784 8.98558 9.82479 9.00156 9.72421C9.01753 9.62362 9.06607 9.53105 9.13971 9.4607L10.5067 8.09271C10.9208 7.67658 10.966 7.0333 10.6082 6.62019V6.62119Z" stroke="white" stroke-width="2" stroke-linecap="round" stroke-linejoin="round"/>
</svg>
