<svg width="36" height="36" viewBox="0 0 36 36" fill="none" xmlns="http://www.w3.org/2000/svg">
<path d="M27 10.575C27 10.1772 26.842 9.79564 26.5607 9.51434C26.2794 9.23304 25.8978 9.075 25.5 9.075L13.5 9C13.1022 9 12.7206 9.15804 12.4393 9.43934C12.158 9.72064 12 10.1022 12 10.5C12 10.8978 12.158 11.2794 12.4393 11.5607C12.7206 11.842 13.1022 12 13.5 12H21.84L9.435 24.435C9.29441 24.5744 9.18282 24.7403 9.10666 24.9231C9.03051 25.1059 8.9913 25.302 8.9913 25.5C8.9913 25.698 9.03051 25.8941 9.10666 26.0769C9.18282 26.2597 9.29441 26.4256 9.435 26.565C9.57444 26.7056 9.74035 26.8172 9.92313 26.8933C10.1059 26.9695 10.302 27.0087 10.5 27.0087C10.698 27.0087 10.8941 26.9695 11.0769 26.8933C11.2597 26.8172 11.4256 26.7056 11.565 26.565L24 14.13V22.5C24 22.8978 24.158 23.2794 24.4393 23.5607C24.7206 23.842 25.1022 24 25.5 24C25.8978 24 26.2794 23.842 26.5607 23.5607C26.842 23.2794 27 22.8978 27 22.5V10.575Z" fill="white"/>
</svg>
