<svg width="24" height="25" viewBox="0 0 24 25" fill="none" xmlns="http://www.w3.org/2000/svg">
<path d="M21.3333 4.08203H2.66668C2.31305 4.08203 1.97392 4.22251 1.72387 4.47256C1.47382 4.7226 1.33334 5.06174 1.33334 5.41536V18.7487C1.33334 19.1023 1.47382 19.4415 1.72387 19.6915C1.97392 19.9416 2.31305 20.082 2.66668 20.082H21.3333C21.687 20.082 22.0261 19.9416 22.2762 19.6915C22.5262 19.4415 22.6667 19.1023 22.6667 18.7487V5.41536C22.6667 5.06174 22.5262 4.7226 22.2762 4.47256C22.0261 4.22251 21.687 4.08203 21.3333 4.08203ZM20.3067 18.7487H3.77334L8.44001 13.922L7.48001 12.9954L2.66668 17.9754V6.4287L10.9533 14.6754C11.2032 14.9237 11.5411 15.0631 11.8933 15.0631C12.2456 15.0631 12.5835 14.9237 12.8333 14.6754L21.3333 6.22203V17.8887L16.4267 12.982L15.4867 13.922L20.3067 18.7487ZM3.54001 5.41536H20.2533L11.8933 13.7287L3.54001 5.41536Z" fill="white"/>
</svg>
