<svg width="163" height="163" viewBox="0 0 163 163" fill="none" xmlns="http://www.w3.org/2000/svg">
<path d="M115.458 115.39C106.29 115.39 100.517 118.243 95.4229 120.824C91.0083 123.065 87.4088 124.899 81.5 124.899C75.3875 124.899 71.9917 123.201 67.5771 120.824C62.4833 118.243 56.9142 115.39 47.5417 115.39C38.1692 115.39 32.6 118.243 27.5063 120.824C23.0917 123.065 19.56 124.899 13.5833 124.899V138.143C22.7521 138.143 28.525 135.29 33.6188 132.709C38.0333 130.468 41.565 128.634 47.5417 128.634C53.5183 128.634 57.05 130.332 61.4646 132.709C66.5583 135.29 72.1275 138.143 81.5 138.143C90.8725 138.143 96.4417 135.29 101.535 132.709C105.95 130.468 109.55 128.634 115.458 128.634C121.571 128.634 124.967 130.332 129.381 132.709C134.475 135.29 140.112 138.143 149.417 138.143V124.899C143.304 124.899 139.908 123.201 135.494 120.824C130.4 118.243 124.627 115.39 115.458 115.39ZM115.458 85.1675C106.29 85.1675 100.517 88.0879 95.4229 90.6008C91.0083 92.7742 87.4088 94.6758 81.5 94.6758C75.3875 94.6758 71.9917 92.9779 67.5771 90.6008C62.4833 88.02 56.9142 85.1675 47.5417 85.1675C38.1692 85.1675 32.6 88.0879 27.5063 90.6008C23.0917 92.7742 19.56 94.6758 13.5833 94.6758V107.92C22.7521 107.92 28.525 104.999 33.6188 102.486C38.0333 100.109 41.4292 98.4113 47.5417 98.4113C53.6542 98.4113 57.05 100.109 61.4646 102.486C66.5583 105.067 72.1275 107.92 81.5 107.92C90.8725 107.92 96.4417 104.999 101.535 102.486C105.95 100.109 109.346 98.4113 115.458 98.4113C121.571 98.4113 124.967 100.109 129.381 102.486C134.475 105.067 140.112 107.92 149.417 107.92V94.6758C143.304 94.6758 139.908 92.9779 135.494 90.6008C130.4 88.02 124.627 85.1675 115.458 85.1675ZM135.494 30.2908C130.4 27.71 124.763 24.8575 115.458 24.8575C106.154 24.8575 100.517 27.71 95.4229 30.2908C91.0083 32.4642 87.4088 34.3658 81.5 34.3658C75.3875 34.3658 71.9917 32.6679 67.5771 30.2908C62.4833 27.7779 56.9142 24.8575 47.5417 24.8575C38.1692 24.8575 32.6 27.71 27.5063 30.2908C23.0917 32.5321 19.56 34.3658 13.5833 34.3658V47.4738C22.7521 47.4738 28.525 44.5533 33.6188 42.0404C38.0333 39.7992 41.565 37.9654 47.5417 37.9654C53.5183 37.9654 57.05 39.6633 61.4646 42.0404C66.5583 44.6213 72.1275 47.4738 81.5 47.4738C90.8725 47.4738 96.4417 44.5533 101.535 42.0404C105.95 39.8671 109.55 37.9654 115.458 37.9654C121.571 37.9654 124.967 39.6633 129.381 42.0404C134.475 44.6213 140.112 47.4738 149.417 47.4738V34.23C143.304 34.23 139.908 32.5321 135.494 30.2908ZM115.458 54.9446C106.29 54.9446 100.517 57.865 95.4229 60.3779C91.0083 62.755 87.6125 64.4529 81.5 64.4529C75.3875 64.4529 71.9917 62.755 67.5771 60.3779C62.4833 57.7971 56.9142 54.9446 47.5417 54.9446C38.1692 54.9446 32.6 57.865 27.5063 60.3779C23.0917 62.755 19.6958 64.4529 13.5833 64.4529V77.6967C22.7521 77.6967 28.525 74.7763 33.6188 72.2633C38.0333 70.09 41.6329 68.1883 47.5417 68.1883C53.4504 68.1883 57.05 69.8863 61.4646 72.2633C66.5583 74.8442 72.1275 77.6967 81.5 77.6967C90.8725 77.6967 96.4417 74.7763 101.535 72.2633C105.95 70.09 109.55 68.1883 115.458 68.1883C121.571 68.1883 124.967 69.8863 129.381 72.2633C134.475 74.8442 140.112 77.6967 149.417 77.6967V64.4529C143.304 64.4529 139.908 62.755 135.494 60.3779C130.4 57.7971 124.627 54.9446 115.458 54.9446Z" fill="#FF5B2E" fill-opacity="0.05"/>
</svg>
