<svg width="141" height="141" viewBox="0 0 141 141" fill="none" xmlns="http://www.w3.org/2000/svg">
<g opacity="0.05" clip-path="url(#clip0_4_105)">
<path d="M111.603 64.5375C107.277 61.6614 102.583 62.0932 98.0495 62.5068C94.1034 62.8657 90.3764 63.2036 86.5793 61.6241C76.0836 57.2323 69.9979 54.3953 62.509 60.0513C55.0201 65.7073 56.0775 72.3444 57.4174 83.6462C57.901 87.738 56.5463 91.2429 55.1208 94.9458C53.4839 99.195 51.7873 103.582 53.3597 108.526C53.8874 110.338 54.747 112.037 55.8949 113.535C60.6904 119.885 69.65 121.232 75.2531 117C80.8561 112.769 86.1034 104.368 92.4078 99.6068C98.7121 94.8454 108.125 92.174 113.798 87.8893C119.471 83.6046 120.539 74.6842 115.744 68.3346C114.61 66.8241 113.206 65.5367 111.603 64.5375Z" fill="#FF5B2E"/>
<path d="M45.1223 96.6793C49.9426 93.0387 50.0558 85.0634 45.3751 78.8658C40.6944 72.6683 32.9923 70.5954 28.172 74.236C23.3517 77.8765 23.2385 85.8519 27.9192 92.0494C32.5999 98.247 40.302 100.32 45.1223 96.6793Z" fill="#FF5B2E"/>
<path d="M51.278 68.5335C56.0983 64.893 56.2115 56.9176 51.5308 50.7201C46.8501 44.5225 39.148 42.4496 34.3277 46.0902C29.5074 49.7307 29.3942 57.7061 34.0749 63.9036C38.7556 70.1012 46.4577 72.1741 51.278 68.5335Z" fill="#FF5B2E"/>
<path d="M73.7213 51.5832C78.5416 47.9426 78.6548 39.9673 73.9741 33.7697C69.2934 27.5722 61.5913 25.4993 56.771 29.1399C51.9507 32.7804 51.8375 40.7558 56.5182 46.9533C61.1989 53.1509 68.901 55.2237 73.7213 51.5832Z" fill="#FF5B2E"/>
<path d="M102.477 53.3618C107.298 49.7213 107.411 41.7459 102.73 35.5484C98.0495 29.3508 90.3474 27.278 85.5271 30.9185C80.7068 34.5591 80.5936 42.5344 85.2743 48.732C89.955 54.9295 97.6571 57.0024 102.477 53.3618Z" fill="#FF5B2E"/>
</g>
<defs>
<clipPath id="clip0_4_105">
<rect width="100" height="100" fill="white" transform="translate(0 60.2678) rotate(-37.0619)"/>
</clipPath>
</defs>
</svg>
