<svg width="190" height="41" viewBox="0 0 190 41" fill="none" xmlns="http://www.w3.org/2000/svg">
<path d="M45.8186 9.61816H50.2144V29.9075H45.8186V9.61816Z" fill="#FF5B2E"/>
<path fill-rule="evenodd" clip-rule="evenodd" d="M57.435 16.1427C54.5551 17.2812 52.676 19.9718 52.676 22.9571C52.6483 24.9129 53.4439 26.7969 54.883 28.1839C56.3221 29.5709 58.2836 30.344 60.3246 30.3287C63.44 30.3458 66.2584 28.5606 67.463 25.8074C68.6675 23.0542 68.0202 19.8767 65.8237 17.7597C63.6271 15.6427 60.3149 15.0043 57.435 16.1427ZM60.2969 19.8405C62.1301 19.8099 63.6465 21.2008 63.6947 22.9572H63.6654C63.7145 23.8225 63.3854 24.6684 62.7571 25.2917C62.1289 25.9151 61.2581 26.2597 60.354 26.2428C58.5205 26.2422 57.0301 24.8257 57.0144 23.0688C56.9988 21.3119 58.4637 19.8711 60.2969 19.8405Z" fill="#FF5B2E"/>
<path fill-rule="evenodd" clip-rule="evenodd" d="M85.3659 29.2195V16.0068L81.1313 16.0911V17.4952C80.0942 16.2902 78.5249 15.6241 76.8967 15.6979C72.8505 15.6979 69.5704 18.8411 69.5704 22.7185C69.5704 26.5958 72.8505 29.739 76.8967 29.739C78.5249 29.8128 80.0942 29.1468 81.1313 27.9418V29.2195C81.1903 30.0553 80.8568 30.8728 80.2219 31.4487C79.5869 32.0245 78.7168 32.2987 77.8491 32.1962C76.4717 32.3285 75.1528 31.6295 74.5377 30.4411L70.8306 32.4911C72.2678 34.7735 74.9301 36.079 77.7026 35.8609C81.5562 35.8609 85.3659 33.8811 85.3659 29.2195ZM79.0651 19.4647C80.3733 20.0309 81.1911 21.3021 81.1313 22.6764C81.1586 23.5655 80.7917 24.4241 80.1215 25.0395C79.4513 25.655 78.5405 25.9697 77.6147 25.9058C76.1793 25.9046 74.8887 25.0676 74.3541 23.791C73.8195 22.5145 74.1482 21.0547 75.1846 20.103C76.2209 19.1512 77.7569 18.8986 79.0651 19.4647Z" fill="#FF5B2E"/>
<path fill-rule="evenodd" clip-rule="evenodd" d="M92.5943 16.1454C89.718 17.2855 87.8422 19.9744 87.8422 22.9572C87.8185 24.9167 88.6193 26.8028 90.0639 28.1898C91.5085 29.5768 93.4752 30.3477 95.5201 30.3287C98.6328 30.3344 101.442 28.542 102.638 25.7879C103.833 23.0338 103.178 19.8608 100.979 17.7497C98.7805 15.6385 95.4707 15.0052 92.5943 16.1454ZM95.458 19.8407C97.2931 19.8074 98.8125 21.199 98.8608 22.9572H98.8461C98.8952 23.8225 98.5661 24.6684 97.9378 25.2918C97.3096 25.9151 96.4389 26.2597 95.5347 26.2428C93.6993 26.2499 92.2017 24.8369 92.1806 23.0782C92.1596 21.3195 93.623 19.8739 95.458 19.8407Z" fill="#FF5B2E"/>
<path fill-rule="evenodd" clip-rule="evenodd" d="M107.843 9.78662C106.403 9.78662 105.235 10.9056 105.235 12.2859C105.251 13.6599 106.409 14.7701 107.843 14.7853C109.283 14.7853 110.451 13.6663 110.451 12.2859C110.451 10.9056 109.283 9.78662 107.843 9.78662ZM110.056 16.0068H105.66V29.9075H110.056V16.0068Z" fill="#000958"/>
<path fill-rule="evenodd" clip-rule="evenodd" d="M126.975 28.0363C128.287 26.6525 128.969 24.8244 128.869 22.9572C128.957 21.0971 128.27 19.2798 126.959 17.9053C125.648 16.5308 123.821 15.7115 121.88 15.6277C120.223 15.5163 118.604 16.137 117.484 17.3127V16.0068H113.089V35.4959H117.484V28.6298C118.603 29.8089 120.221 30.4345 121.88 30.3288C123.829 30.2452 125.663 29.4201 126.975 28.0363ZM120.954 19.7283C122.854 19.695 124.425 21.1369 124.474 22.9572C124.541 23.8594 124.204 24.7464 123.546 25.3954C122.889 26.0443 121.973 26.3935 121.03 26.3551C119.13 26.3622 117.58 24.8989 117.559 23.0782C117.538 21.2575 119.054 19.7615 120.954 19.7283Z" fill="#000958"/>
<path d="M142.247 25.7374C142.247 28.9387 139.317 30.3007 136.21 30.3007C133.618 30.5243 131.145 29.2116 129.968 26.987L133.749 24.937C134.057 25.9695 135.078 26.6545 136.196 26.5798C137.236 26.5798 137.763 26.2709 137.763 25.7093C137.763 24.1788 130.628 24.9932 130.628 20.1771C130.628 17.1442 133.294 15.6278 136.313 15.6278C138.65 15.5275 140.857 16.6654 142.057 18.5904L138.276 20.5C137.935 19.76 137.172 19.2815 136.327 19.2785C135.566 19.2785 135.111 19.5593 135.111 20.0507C135.111 21.6514 142.247 20.5983 142.247 25.7374Z" fill="#000958"/>
<path d="M158.174 16.0068V29.9075H153.779V28.6017C152.766 29.7739 151.232 30.415 149.647 30.3287C146.716 30.3287 144.211 28.3209 144.211 24.5719V16.0068H148.606V23.9401C148.536 24.6113 148.777 25.2782 149.265 25.7645C149.753 26.2509 150.439 26.5078 151.141 26.4674C152.724 26.4674 153.837 25.5688 153.837 23.6592V16.0068H158.174Z" fill="#000958"/>
<path d="M183.084 21.3705V29.9075H178.688V21.7356C178.688 20.3315 177.999 19.4609 176.607 19.4609C175.216 19.4609 174.336 20.4298 174.336 22.0726V29.9075H169.941V21.7356C169.941 20.3315 169.252 19.4609 167.86 19.4609C166.468 19.4609 165.589 20.4298 165.589 22.0726V29.9075H161.193V16.0068H165.589V17.2846C166.513 16.1378 167.979 15.5148 169.486 15.6277C170.999 15.5521 172.441 16.2458 173.281 17.4531C174.263 16.1928 175.851 15.5036 177.487 15.6277C180.915 15.6277 183.084 17.9024 183.084 21.3705Z" fill="#000958"/>
<path d="M19.6344 5.96747V0H0V41H19.6344V35.0325C11.2588 35.0325 4.46903 28.5261 4.46903 20.5C4.46903 12.4739 11.2588 5.96747 19.6344 5.96747Z" fill="#FF5B2E"/>
<path d="M19.6345 5.96747V35.0325C28.0101 35.0325 34.7999 28.5261 34.7999 20.5C34.7999 12.4739 28.0101 5.96747 19.6345 5.96747Z" fill="#000958"/>
<path d="M186.776 15.9226C188.557 15.9226 190 14.5396 190 12.8335C190 11.1275 188.557 9.74451 186.776 9.74451C184.996 9.74451 183.553 11.1275 183.553 12.8335C183.553 14.5396 184.996 15.9226 186.776 15.9226Z" fill="#FF5B2E"/>
</svg>
